<!DOCTYPE svg PUBLIC "-//W3C//DTD SVG 1.1//EN" "http://www.w3.org/Graphics/SVG/1.1/DTD/svg11.dtd">
<!-- Uploaded to: SVG Repo, www.svgrepo.com, Transformed by: SVG Repo Mixer Tools -->
<svg fill="#3a0479" version="1.1" id="Capa_1" xmlns="http://www.w3.org/2000/svg" xmlns:xlink="http://www.w3.org/1999/xlink" viewBox="-29.7 -29.7 356.40 356.40" xml:space="preserve" width="119px" height="119px" stroke="#3a0479" transform="rotate(-45)" stroke-width="1.485">
<g id="SVGRepo_bgCarrier" stroke-width="0">
<path transform="translate(-29.7, -29.7), scale(11.1375)" d="M16,30.29483817331493C18.196339264649755,30.83371785650882,20.609860613125722,29.450637407642503,22.232927656357575,27.87585143755768C23.78456363424624,26.370371686214554,23.53324326178586,23.817643950547335,24.608737940347606,21.942182757675553C25.571838447123387,20.26271593994232,27.47855743678372,19.279559948150947,28.194127916612704,17.480635195301048C28.99707160699841,15.462056563990398,29.91467454749876,13.031645454436056,28.921731703504932,11.099433569244464C27.907907993682635,9.12658867343105,25.007286753568152,9.16733744195002,23.23595189662825,7.832298745085918C21.637011420146273,6.627192098128429,20.71058789398784,4.7621611811083895,19.043028856192926,3.6539466110263845C16.91180221664422,2.2375911114226223,14.532279934789706,-0.5142742624530094,12.17503676752579,0.4815141391501996C9.629798249124004,1.5567188660685856,10.734370158729227,5.9126054592184145,8.86969307361083,7.951547265297762C7.29020441788668,9.678648154822316,3.654149628600094,8.825767704115993,2.6226402580562667,10.926636646872314C1.6243537551661826,12.959840774517692,3.2783880452067393,15.368751058824602,4.21540445093941,17.43090896303915C4.988278628186936,19.13182752094646,6.3204424789047255,20.430204623332433,7.571442289298318,21.817813324978797C8.687930486277851,23.056221775997535,10.013550477139304,23.98383050973659,11.189190776263919,25.16623114937758C12.866213825420049,26.852897664204757,13.690015171169813,29.728075145044244,16,30.29483817331493" fill="#96aef8" strokewidth="0"/>
</g>
<g id="SVGRepo_tracerCarrier" stroke-linecap="round" stroke-linejoin="round" stroke="#CCCCCC" stroke-width="7.128"> <g> <path d="M237.333,33h-50.14c-2.558-18.613-18.556-33-37.86-33s-35.303,14.387-37.86,33h-51.14C50.408,33,42,41.075,42,51v228 c0,9.925,8.408,18,18.333,18h177c9.925,0,17.667-8.075,17.667-18V51C255,41.075,247.258,33,237.333,33z M93.052,48 c3.432,18.033,19.084,31,38.092,31h36.379c19.008,0,34.66-12.967,38.092-31H223v216H75V48H93.052z M149.333,16 c10.456,0,19.242,7.259,21.601,17h-43.201C130.091,23.259,138.877,16,149.333,16z"/> <rect x="99" y="109" width="50" height="15"/> <polygon points="200.689,105.076 189.645,94.924 175.427,110.39 169.237,105.347 159.763,116.976 176.907,130.944 "/> <rect x="99" y="157" width="50" height="15"/> <polygon points="200.689,153.076 189.645,142.924 175.427,158.39 169.237,153.347 159.763,164.976 176.907,178.944 "/> <rect x="99" y="205" width="50" height="15"/> <polygon points="200.689,201.076 189.645,190.924 175.427,206.39 169.237,201.347 159.763,212.976 176.907,226.944 "/> </g> </g>
<g id="SVGRepo_iconCarrier"> <g> <path d="M237.333,33h-50.14c-2.558-18.613-18.556-33-37.86-33s-35.303,14.387-37.86,33h-51.14C50.408,33,42,41.075,42,51v228 c0,9.925,8.408,18,18.333,18h177c9.925,0,17.667-8.075,17.667-18V51C255,41.075,247.258,33,237.333,33z M93.052,48 c3.432,18.033,19.084,31,38.092,31h36.379c19.008,0,34.66-12.967,38.092-31H223v216H75V48H93.052z M149.333,16 c10.456,0,19.242,7.259,21.601,17h-43.201C130.091,23.259,138.877,16,149.333,16z"/> <rect x="99" y="109" width="50" height="15"/> <polygon points="200.689,105.076 189.645,94.924 175.427,110.39 169.237,105.347 159.763,116.976 176.907,130.944 "/> <rect x="99" y="157" width="50" height="15"/> <polygon points="200.689,153.076 189.645,142.924 175.427,158.39 169.237,153.347 159.763,164.976 176.907,178.944 "/> <rect x="99" y="205" width="50" height="15"/> <polygon points="200.689,201.076 189.645,190.924 175.427,206.39 169.237,201.347 159.763,212.976 176.907,226.944 "/> </g> </g>
</svg>